HIERARCHY
ROOT Hips
{
	OFFSET 0.000000 83.214638 0.000000
	CHANNELS 6 Xposition Yposition Zposition Xrotation Yrotation Zrotation
	JOINT Pelvis
	{
		OFFSET 0.000000 0.000000 0.000000
		CHANNELS 3 Xrotation Yrotation Zrotation
		JOINT LeftUpLeg
		{
			OFFSET 8.479700 -4.795502 -0.379100
			CHANNELS 3 Xrotation Yrotation Zrotation
			JOINT LeftLeg
			{
				OFFSET 0.024144 -32.555107 0.112900
				CHANNELS 3 Xrotation Yrotation Zrotation
				JOINT LeftFoot
				{
					OFFSET -0.024144 -32.638630 -3.012600
					CHANNELS 3 Xrotation Yrotation Zrotation
					JOINT LeftToeBase
					{
						OFFSET 0.970200 -13.225400 11.864200
						CHANNELS 3 Xrotation Yrotation Zrotation
						End Site
						{
							OFFSET 0.000000 12.319262 0.000000
						}
					}
					JOINT LFootTongue
					{
						OFFSET 1.142400 -1.059800 6.665200
						CHANNELS 3 Xrotation Yrotation Zrotation
						End Site
						{
							OFFSET 0.000000 12.319262 0.000000
						}
					}
				}
				JOINT LeftPantLeg
				{
					OFFSET 0.918482 -16.533964 -2.284700
					CHANNELS 3 Xrotation Yrotation Zrotation
					End Site
					{
						OFFSET 0.350399 24.744368 0.000000
					}
				}
			}
		}
		JOINT RightUpLeg
		{
			OFFSET -8.479700 -4.795502 -0.379100
			CHANNELS 3 Xrotation Yrotation Zrotation
			JOINT RightLeg
			{
				OFFSET -0.023144 -32.555092 0.112900
				CHANNELS 3 Xrotation Yrotation Zrotation
				JOINT RightFoot
				{
					OFFSET 0.023144 -32.638641 -3.012700
					CHANNELS 3 Xrotation Yrotation Zrotation
					JOINT RightToeBase
					{
						OFFSET -0.970200 -13.225400 11.864200
						CHANNELS 3 Xrotation Yrotation Zrotation
						End Site
						{
							OFFSET 0.000000 12.319244 0.000000
						}
					}
					JOINT RFootTongue
					{
						OFFSET -1.142200 -1.059800 6.665200
						CHANNELS 3 Xrotation Yrotation Zrotation
						End Site
						{
							OFFSET 0.000000 12.319243 0.000000
						}
					}
				}
				JOINT RightPantLeg
				{
					OFFSET -0.919482 -16.533978 -2.284800
					CHANNELS 3 Xrotation Yrotation Zrotation
					End Site
					{
						OFFSET -0.350400 24.744419 0.000000
					}
				}
			}
		}
	}
	JOINT Spine
	{
		OFFSET 0.000000 7.722000 1.166200
		CHANNELS 3 Xrotation Yrotation Zrotation
		JOINT Spine1
		{
			OFFSET 0.000000 12.024101 0.248800
			CHANNELS 3 Xrotation Yrotation Zrotation
			JOINT Spine2
			{
				OFFSET 0.000000 11.502998 -0.491200
				CHANNELS 3 Xrotation Yrotation Zrotation
				JOINT Neck
				{
					OFFSET 0.000000 18.430702 -3.123100
					CHANNELS 3 Xrotation Yrotation Zrotation
					JOINT Head
					{
						OFFSET 0.000000 9.051102 1.034000
						CHANNELS 3 Xrotation Yrotation Zrotation
						JOINT HairB
						{
							OFFSET 0.208400 24.786102 24.822300
							CHANNELS 3 Xrotation Yrotation Zrotation
							End Site
							{
								OFFSET 0.000000 32.263779 0.000000
							}
						}
						JOINT HairA
						{
							OFFSET -7.081100 24.428299 23.196600
							CHANNELS 3 Xrotation Yrotation Zrotation
							End Site
							{
								OFFSET 0.000000 32.263779 0.000000
							}
						}
						JOINT Hat
						{
							OFFSET 16.728800 15.048294 -15.439601
							CHANNELS 3 Xrotation Yrotation Zrotation
							End Site
							{
								OFFSET 0.000000 32.263779 0.000000
							}
						}
					}
				}
				JOINT LeftShoulder
				{
					OFFSET 6.197800 13.665199 -4.064700
					CHANNELS 3 Xrotation Yrotation Zrotation
					JOINT LeftArm
					{
						OFFSET 7.778100 -0.187103 -1.709300
						CHANNELS 3 Xrotation Yrotation Zrotation
						JOINT LeftForeArm
						{
							OFFSET 22.049376 0.000000 0.000000
							CHANNELS 3 Xrotation Yrotation Zrotation
							JOINT LeftHand
							{
								OFFSET 23.009392 0.000000 0.000000
								CHANNELS 3 Xrotation Yrotation Zrotation
								JOINT LeftHandThumb1
								{
									OFFSET 3.507191 -2.063065 3.133727
									CHANNELS 3 Xrotation Yrotation Zrotation
									JOINT LeftHandThumb2
									{
										OFFSET 3.101337 -1.790558 1.790558
										CHANNELS 3 Xrotation Yrotation Zrotation
										JOINT LeftHandThumb3
										{
											OFFSET 3.058640 -1.765907 1.765906
											CHANNELS 3 Xrotation Yrotation Zrotation
											End Site
											{
												OFFSET -0.415260 3.926476 -0.049563
											}
										}
									}
								}
								JOINT LeftHandIndex1
								{
									OFFSET 11.334419 -0.901459 3.706815
									CHANNELS 3 Xrotation Yrotation Zrotation
									JOINT LeftHandIndex2
									{
										OFFSET 3.283112 0.000000 0.000000
										CHANNELS 3 Xrotation Yrotation Zrotation
										JOINT LeftHandIndex3
										{
											OFFSET 3.323853 0.000000 0.000000
											CHANNELS 3 Xrotation Yrotation Zrotation
											End Site
											{
												OFFSET -1.135597 3.097809 0.402452
											}
										}
									}
								}
								JOINT LeftHandMiddle1
								{
									OFFSET 11.335861 0.000000 0.000000
									CHANNELS 3 Xrotation Yrotation Zrotation
									JOINT LeftHandMiddle2
									{
										OFFSET 3.410492 0.000000 0.000000
										CHANNELS 3 Xrotation Yrotation Zrotation
										JOINT LeftHandMiddle3
										{
											OFFSET 3.312172 0.000000 0.000000
											CHANNELS 3 Xrotation Yrotation Zrotation
											End Site
											{
												OFFSET -1.150200 3.080154 0.400270
											}
										}
									}
								}
								JOINT LeftHandRing1
								{
									OFFSET 11.514786 -0.013176 -3.003090
									CHANNELS 3 Xrotation Yrotation Zrotation
									JOINT LeftHandRing2
									{
										OFFSET 3.053307 0.000000 0.000000
										CHANNELS 3 Xrotation Yrotation Zrotation
										JOINT LeftHandRing3
										{
											OFFSET 3.295807 0.000000 0.000000
											CHANNELS 3 Xrotation Yrotation Zrotation
											End Site
											{
												OFFSET -1.281006 3.013344 0.375733
											}
										}
									}
								}
								JOINT LeftHandPinky1
								{
									OFFSET 10.518692 -0.960396 -5.730441
									CHANNELS 3 Xrotation Yrotation Zrotation
									JOINT LeftHandPinky2
									{
										OFFSET 2.861649 0.000000 0.000000
										CHANNELS 3 Xrotation Yrotation Zrotation
										JOINT LeftHandPinky3
										{
											OFFSET 2.863380 0.000000 0.000000
											CHANNELS 3 Xrotation Yrotation Zrotation
											End Site
											{
												OFFSET -0.843597 2.711159 0.369971
											}
										}
									}
								}
							}
							JOINT LSleeve
							{
								OFFSET 6.676277 -0.344902 -1.011730
								CHANNELS 3 Xrotation Yrotation Zrotation
								End Site
								{
									OFFSET 0.000000 14.885353 0.000000
								}
							}
						}
					}
				}
				JOINT RightShoulder
				{
					OFFSET -6.197800 13.665199 -4.064700
					CHANNELS 3 Xrotation Yrotation Zrotation
					JOINT RightArm
					{
						OFFSET -7.778100 -0.187103 -1.709300
						CHANNELS 3 Xrotation Yrotation Zrotation
						JOINT RightForeArm
						{
							OFFSET -22.049376 0.000000 0.000000
							CHANNELS 3 Xrotation Yrotation Zrotation
							JOINT RightHand
							{
								OFFSET -23.009392 0.000000 0.000000
								CHANNELS 3 Xrotation Yrotation Zrotation
								JOINT RightHandThumb1
								{
									OFFSET -3.507191 -2.063065 3.133727
									CHANNELS 3 Xrotation Yrotation Zrotation
									JOINT RightHandThumb2
									{
										OFFSET -3.101337 -1.790558 1.790558
										CHANNELS 3 Xrotation Yrotation Zrotation
										JOINT RightHandThumb3
										{
											OFFSET -3.058640 -1.765907 1.765906
											CHANNELS 3 Xrotation Yrotation Zrotation
											End Site
											{
												OFFSET 0.415260 3.926476 -0.049563
											}
										}
									}
								}
								JOINT RightHandIndex1
								{
									OFFSET -11.334419 -0.901459 3.706815
									CHANNELS 3 Xrotation Yrotation Zrotation
									JOINT RightHandIndex2
									{
										OFFSET -3.283112 0.000000 0.000000
										CHANNELS 3 Xrotation Yrotation Zrotation
										JOINT RightHandIndex3
										{
											OFFSET -3.323853 0.000000 0.000000
											CHANNELS 3 Xrotation Yrotation Zrotation
											End Site
											{
												OFFSET 1.135597 3.097809 0.402452
											}
										}
									}
								}
								JOINT RightHandMiddle1
								{
									OFFSET -11.335861 0.000000 0.000000
									CHANNELS 3 Xrotation Yrotation Zrotation
									JOINT RightHandMiddle2
									{
										OFFSET -3.410492 0.000000 0.000000
										CHANNELS 3 Xrotation Yrotation Zrotation
										JOINT RightHandMiddle3
										{
											OFFSET -3.312172 0.000000 0.000000
											CHANNELS 3 Xrotation Yrotation Zrotation
											End Site
											{
												OFFSET 1.150200 3.080154 0.400270
											}
										}
									}
								}
								JOINT RightHandRing1
								{
									OFFSET -11.514786 -0.013176 -3.003090
									CHANNELS 3 Xrotation Yrotation Zrotation
									JOINT RightHandRing2
									{
										OFFSET -3.053307 0.000000 0.000000
										CHANNELS 3 Xrotation Yrotation Zrotation
										JOINT RightHandRing3
										{
											OFFSET -3.295807 0.000000 0.000000
											CHANNELS 3 Xrotation Yrotation Zrotation
											End Site
											{
												OFFSET 1.281006 3.013344 0.375733
											}
										}
									}
								}
								JOINT RightHandPinky1
								{
									OFFSET -10.518692 -0.960396 -5.730441
									CHANNELS 3 Xrotation Yrotation Zrotation
									JOINT RightHandPinky2
									{
										OFFSET -2.861649 0.000000 0.000000
										CHANNELS 3 Xrotation Yrotation Zrotation
										JOINT RightHandPinky3
										{
											OFFSET -2.863380 0.000000 0.000000
											CHANNELS 3 Xrotation Yrotation Zrotation
											End Site
											{
												OFFSET 0.843597 2.711159 0.369971
											}
										}
									}
								}
							}
							JOINT RSleeve
							{
								OFFSET -6.676277 -0.344902 -1.011730
								CHANNELS 3 Xrotation Yrotation Zrotation
								End Site
								{
									OFFSET 0.000000 14.885353 0.000000
								}
							}
						}
					}
				}
				JOINT Backpack
				{
					OFFSET 0.000000 -2.471497 36.677502
					CHANNELS 3 Xrotation Yrotation Zrotation
					End Site
					{
						OFFSET 0.000000 20.427315 0.000000
					}
				}
				JOINT Hood
				{
					OFFSET 0.000000 18.754097 -10.431000
					CHANNELS 3 Xrotation Yrotation Zrotation
					JOINT Hood1
					{
						OFFSET 0.000000 -5.011002 -7.685901
						CHANNELS 3 Xrotation Yrotation Zrotation
						End Site
						{
							OFFSET 0.000000 9.175140 0.000000
						}
					}
				}
				JOINT LHoodieString
				{
					OFFSET 5.250500 16.397697 3.089900
					CHANNELS 3 Xrotation Yrotation Zrotation
					JOINT LHoodieString1
					{
						OFFSET 0.257700 -6.364304 3.694600
						CHANNELS 3 Xrotation Yrotation Zrotation
						JOINT LHoodieString2
						{
							OFFSET 0.000000 -9.643799 2.679100
							CHANNELS 3 Xrotation Yrotation Zrotation
							End Site
							{
								OFFSET 0.000000 10.009018 0.000000
							}
						}
					}
				}
				JOINT RHoodieString
				{
					OFFSET -5.250500 16.397697 3.089900
					CHANNELS 3 Xrotation Yrotation Zrotation
					JOINT RHoodieString1
					{
						OFFSET -0.257700 -6.364304 3.694600
						CHANNELS 3 Xrotation Yrotation Zrotation
						JOINT RHoodieString2
						{
							OFFSET 0.000000 -9.643799 2.679100
							CHANNELS 3 Xrotation Yrotation Zrotation
							End Site
							{
								OFFSET 0.000000 10.009018 0.000000
							}
						}
					}
				}
			}
			JOINT LBackpack_Strap
			{
				OFFSET 15.223200 -7.719803 -6.610900
				CHANNELS 3 Xrotation Yrotation Zrotation
				End Site
				{
					OFFSET 0.000000 16.040596 0.000000
				}
			}
			JOINT RBackpack_Strap
			{
				OFFSET -15.223000 -7.719803 -6.610900
				CHANNELS 3 Xrotation Yrotation Zrotation
				End Site
				{
					OFFSET 0.000000 16.040596 0.000000
				}
			}
		}
	}
	JOINT BoyFacialAnim_Joint
	{
		OFFSET 1.000000 -82.208099 -1.550900
		CHANNELS 3 Xrotation Yrotation Zrotation
		End Site
		{
			OFFSET 0.000000 30.012791 0.000000
		}
	}
}
MOTION
Frames: 4
Frame Time: 0.033333
4.977757 22.242432 -77.121849 82.109242 -14.022167 16.763338 0.000001 -0.000000 -0.000000 -30.823151 28.403932 29.719885 57.387256 16.173678 -1.106967 20.705020 -2.532593 2.461330 0.000000 0.000001 0.000003 0.000000 0.000001 0.000003 -0.000001 0.000004 0.000001 -66.940560 -7.972806 -54.089661 98.061326 13.894156 3.678859 -52.146510 25.109428 9.647341 0.000000 0.000000 -0.000001 0.000000 0.000000 -0.000001 -0.000004 0.000001 -0.000003 0.624607 0.942739 1.603513 1.234007 2.061162 2.685816 1.234013 2.061168 2.685808 -11.857646 17.460233 -6.596887 -24.370153 -2.573875 -11.403008 -0.000003 0.000001 -0.000000 -0.000003 0.000001 -0.000000 -0.000003 0.000001 -0.000000 0.041518 3.333315 -0.509038 -41.027724 -2.918682 -48.697411 0.039435 -82.677801 0.081396 24.906821 17.513621 56.005564 -9.156209 -1.809180 14.406489 0.955441 3.932256 2.032228 -0.000000 -0.000001 0.000002 3.274983 -0.194985 -2.632981 0.090125 0.816180 -20.279562 -0.000001 -0.000000 -0.000002 3.012648 1.885794 -0.863418 -0.328487 -1.203789 -21.321877 0.000001 -0.000000 -0.000001 2.429813 9.473857 -4.949111 -0.169541 -1.817676 -15.335211 0.000000 0.000001 -0.000002 1.686605 15.880668 -1.372986 -0.416164 -5.226720 -20.435513 0.000001 0.000000 -0.000000 -0.000001 0.000001 0.000000 0.573875 -1.897567 3.530165 -22.534041 18.727812 53.761392 -0.370312 81.011146 0.235257 89.978856 10.155720 -72.147336 -14.703744 7.969131 -14.280723 2.321140 -6.714511 -2.170914 0.000001 -0.000002 0.000001 -0.718714 0.621455 8.687799 0.112255 -1.112295 16.594397 -0.000001 -0.000002 0.000003 -0.937744 -0.419484 12.239935 -0.258391 -0.014137 10.314633 0.000001 0.000001 -0.000000 1.353345 -10.140162 17.310124 -0.009003 0.893407 3.786025 -0.000000 -0.000000 0.000002 3.767531 -17.053224 13.347962 -0.167955 4.823013 11.078368 0.000000 0.000000 0.000002 0.000000 -0.000003 0.000001 -0.000001 0.000000 0.000000 -0.000001 0.000000 0.000000 -0.000001 0.000000 0.000000 -0.000001 0.000000 0.000000 -0.000001 0.000000 0.000000 0.000001 0.000001 0.000000 -0.000001 0.000000 0.000000 -0.000001 0.000000 0.000000 0.000001 0.000001 0.000000 -0.000000 -0.000000 0.000001 -0.000000 -0.000000 0.000001 0.000001 -0.000000 -0.000000 
5.374250 23.086903 -80.854691 81.183956 -10.663217 13.339155 -0.000000 0.000001 -0.000001 -31.951120 27.793906 26.276103 52.733162 15.266849 -0.783390 12.706908 -0.311620 4.016710 -0.000001 -0.000000 -0.000001 -0.000001 -0.000000 -0.000001 -0.000001 0.000001 -0.000001 -69.709860 -10.767256 -56.557829 103.465092 19.540744 4.147648 -58.509948 26.057684 4.245266 0.000000 0.000001 -0.000001 0.000000 0.000001 -0.000001 -0.000002 -0.000000 -0.000000 0.653232 0.169279 2.477974 1.295540 0.412139 5.357968 1.295571 0.412137 5.357978 -13.738314 17.438696 -8.959412 -25.828446 -3.722208 -11.032418 0.000002 0.000000 -0.000000 0.000002 0.000000 -0.000000 0.000002 0.000000 -0.000000 0.022774 3.382622 -0.221607 -46.417460 -4.212448 -46.743284 0.025946 -76.830100 0.067150 21.341763 16.487201 53.037385 -9.680791 -1.735507 15.425543 1.013352 4.049641 2.039551 0.000001 -0.000001 0.000001 3.231329 -0.070841 0.391218 0.115803 0.870997 -23.921892 -0.000001 0.000000 -0.000002 2.991140 2.261898 1.910535 -0.436213 -1.452589 -24.641296 0.000001 -0.000001 0.000000 2.439286 10.228242 -3.125885 -0.261878 -2.116917 -19.017209 -0.000000 0.000001 -0.000002 1.683701 15.831607 -1.289538 -0.591143 -5.641465 -24.303130 -0.000001 0.000001 0.000003 -0.000001 0.000001 0.000002 1.463627 -1.344868 4.790748 -27.296397 16.534273 54.464963 -1.453141 76.731800 0.981850 94.796312 14.166128 -75.520015 -14.864353 7.259704 -15.067551 2.606304 -7.295538 -2.191534 -0.000001 0.000001 0.000000 -0.714832 0.603116 9.336171 0.098352 -1.115011 16.513461 -0.000000 -0.000002 0.000003 -0.951516 -0.376739 12.886968 -0.258061 -0.030242 10.046210 0.000001 0.000001 0.000002 1.382454 -9.998725 18.647878 -0.007810 0.884788 3.705384 -0.000001 0.000000 0.000002 3.821595 -16.811081 14.720415 -0.190468 4.931419 11.719455 -0.000000 -0.000000 0.000000 0.000001 -0.000001 0.000001 -0.000001 0.000000 0.000001 -0.000001 0.000000 0.000001 -0.000001 0.000000 0.000001 -0.000001 0.000000 0.000001 -0.000001 0.000000 0.000001 -0.000000 0.000000 0.000001 -0.000001 0.000000 0.000001 -0.000001 0.000000 0.000001 -0.000000 0.000000 0.000001 -0.000000 -0.000000 -0.000002 -0.000000 -0.000000 -0.000002 -0.000000 0.000001 -0.000001 
5.431401 23.993431 -84.230888 80.564629 -4.708215 10.559342 -0.000000 0.000000 0.000000 -32.699500 27.912630 21.925097 44.098280 12.499068 -0.329872 12.975079 1.453564 8.987630 0.000000 -0.000002 -0.000002 0.000000 -0.000002 -0.000002 0.000000 -0.000001 -0.000000 -71.866164 -13.514433 -63.116596 104.616990 18.729441 4.030650 -42.547437 28.132663 -0.323987 0.000000 0.000000 -0.000000 0.000000 0.000000 -0.000000 0.000001 -0.000002 0.000000 0.631095 -0.692112 3.062131 1.309085 -1.355653 6.717176 1.309089 -1.355653 6.717173 -17.133043 15.010630 -10.569035 -27.548929 -6.319996 -9.743736 0.000002 0.000000 0.000000 0.000002 0.000000 0.000000 0.000002 0.000000 0.000000 0.037036 3.000854 0.101636 -52.882951 -7.631892 -44.818270 0.017153 -70.704643 0.054506 20.475466 13.623620 48.879460 -9.917022 -1.818666 15.801554 1.100089 4.225603 2.050279 -0.000000 -0.000001 0.000002 3.206625 -0.009096 1.917547 0.129506 0.901400 -25.913586 -0.000002 0.000000 -0.000002 2.976588 2.420779 3.085647 -0.491757 -1.563098 -26.158228 0.000000 -0.000001 0.000000 2.426843 10.491368 -2.329592 -0.321660 -2.281756 -21.078254 0.000000 0.000001 -0.000004 1.678231 15.769387 -1.085579 -0.710384 -5.886194 -26.642845 -0.000000 0.000001 -0.000002 -0.000000 -0.000004 0.000005 2.611306 -1.801083 4.767140 -32.595456 14.105775 57.320416 -3.585120 78.721400 2.666261 98.495235 16.112087 -75.405213 -15.223850 6.508893 -16.222193 2.891636 -7.876670 -2.209271 0.000001 0.000002 0.000001 -0.710748 0.584828 9.984514 0.075742 -1.106483 16.068893 -0.000001 0.000000 0.000002 -0.965775 -0.334188 13.533977 -0.261649 -0.023562 10.177297 0.000000 -0.000001 -0.000002 1.396590 -9.924960 19.349605 -0.010005 0.929133 4.115766 -0.000001 -0.000001 0.000000 3.866182 -16.596590 15.937744 -0.214188 5.039574 12.360657 -0.000000 -0.000000 0.000000 -0.000000 -0.000002 0.000001 0.000000 -0.000000 0.000001 0.000000 -0.000000 0.000001 0.000000 -0.000000 0.000001 0.000000 -0.000000 0.000001 0.000000 -0.000000 0.000001 0.000001 -0.000000 0.000001 0.000000 -0.000000 0.000001 0.000000 -0.000000 0.000001 0.000001 -0.000000 0.000001 -0.000000 0.000000 0.000001 -0.000000 0.000000 0.000001 -0.000000 0.000000 0.000000 
4.739011 24.159332 -87.594131 80.500411 3.166158 9.185905 0.000002 0.000000 -0.000001 -30.587875 29.292147 16.661441 34.321578 8.133948 0.027116 16.068812 1.818043 13.275403 0.000000 -0.000002 -0.000002 0.000000 -0.000002 -0.000002 -0.000000 0.000000 0.000000 -72.137357 -18.178458 -71.956719 100.112746 15.656030 3.695994 -26.637849 31.493712 -1.717747 -0.000000 -0.000001 0.000001 -0.000000 -0.000001 0.000001 -0.000005 -0.000001 -0.000001 0.543038 -1.633987 3.086204 1.212705 -3.301906 7.043806 1.212708 -3.301906 7.043814 -21.544044 11.088443 -12.101953 -29.293698 -9.918055 -7.888417 0.000003 0.000001 -0.000000 0.000003 0.000001 -0.000000 0.000003 0.000001 -0.000000 0.042399 2.312975 1.241899 -59.319988 -10.128347 -42.693289 0.005795 -67.177697 0.037393 19.902941 10.461826 43.095632 -9.988020 -1.995929 15.801597 1.207704 4.444032 2.063192 -0.000000 -0.000000 -0.000001 3.201462 0.002646 2.208251 0.130184 0.909535 -26.353175 -0.000001 -0.000001 -0.000000 2.978472 2.402822 2.952749 -0.489009 -1.550837 -26.013464 0.000001 -0.000001 0.000000 2.421502 10.351251 -2.371008 -0.337697 -2.324004 -21.609006 -0.000000 0.000000 -0.000002 1.671091 15.701155 -0.769636 -0.757459 -5.976474 -27.518043 -0.000000 0.000001 -0.000002 -0.000001 0.000000 0.000004 4.008302 -2.949933 4.923371 -34.665908 11.538903 58.438190 -9.079078 84.620757 7.769874 100.357008 16.772896 -71.425084 -16.220234 6.974013 -17.476205 2.591076 -7.264535 -2.190516 0.000000 0.000001 0.000004 -0.714320 0.600781 9.419306 0.035493 -1.043297 14.147566 -0.000001 0.000000 0.000002 -0.929020 -0.447395 11.818114 -0.272846 0.031987 11.161515 0.000001 0.000001 0.000002 1.375295 -10.041277 18.271173 -0.021108 1.072296 5.443344 0.000001 0.000001 -0.000001 3.891221 -16.479884 16.610557 -0.193438 4.945316 11.801661 0.000000 0.000001 -0.000001 0.000001 0.000003 -0.000000 -0.000000 -0.000000 -0.000000 -0.000000 -0.000000 -0.000000 -0.000000 -0.000000 -0.000000 -0.000000 -0.000000 -0.000000 -0.000000 -0.000000 -0.000000 -0.000000 0.000000 -0.000000 -0.000000 -0.000000 -0.000000 -0.000000 -0.000000 -0.000000 -0.000000 0.000000 -0.000000 0.000000 0.000000 0.000001 0.000000 0.000000 0.000001 0.000002 0.000000 -0.000001 
